<?xml version="1.0" encoding="UTF-8"?>
<svg width="382px" height="227px" viewBox="0 0 382 227" version="1.1" xmlns="http://www.w3.org/2000/svg" xmlns:xlink="http://www.w3.org/1999/xlink">
    <!-- Generator: Sketch 47.1 (45422) - http://www.bohemiancoding.com/sketch -->
    <title>Rewards</title>
    <desc>Created with Sketch.</desc>
    <defs></defs>
    <g id="Main-Expeiance" stroke="none" stroke-width="1" fill="none" fill-rule="evenodd">
        <g id="Desktop_LandingPage" transform="translate(-753.000000, -1595.000000)">
            <g id="Rewards" transform="translate(700.000000, 1542.000000)">
                <g id="Group-3" opacity="0.36497962">
                    <g id="noun_1058531_cc-copy-5" transform="translate(53.169501, 53.280000)" fill-rule="nonzero" fill="#FFFFFF">
                        <path d="M63.37763,0 C48.6736753,0 36.7201868,12.1525564 36.7201868,26.7128438 C36.7201868,30.275863 37.4679962,33.6695617 38.7503894,36.7965 L8.47388925,36.7965 C8.17985676,36.7811347 7.88522495,36.7811347 7.59119246,36.7965 C3.25911657,37.2515014 -0.023295034,40.9232036 -3.63776392e-14,45.288 L-3.63776392e-14,96.237 C0.000467910415,100.926532 3.79408328,104.728031 8.47388925,104.7285 L16.9477785,104.7285 L16.9477785,217.9485 C16.9482461,222.638032 20.7418617,226.439531 25.4216678,226.44 L200.548712,226.44 C205.228518,226.439531 209.022134,222.638032 209.022602,217.9485 L209.022602,124.542 C209.065806,121.47967 207.460208,118.63125 204.820618,117.08745 C202.181028,115.543651 198.916396,115.543651 196.276806,117.08745 C193.637217,118.63125 192.031618,121.47967 192.074823,124.542 L192.074823,209.457 L121.459079,209.457 L121.459079,104.7285 L217.496491,104.7285 C222.176297,104.728031 225.969912,100.926532 225.97038,96.237 L225.97038,45.288 C225.969912,40.5984683 222.176297,36.7969689 217.496491,36.7965 L187.219991,36.7965 C188.502384,33.6695617 189.250193,30.275863 189.250193,26.7128438 C189.250193,12.1525564 177.296705,0 162.59275,0 C147.897498,0 137.0345,7.12126627 129.050272,14.7716719 C123.025916,20.5441483 118.06012,26.5286858 112.98519,31.3124063 C107.91026,26.5286858 102.944465,20.5441483 96.9201083,14.7716719 C88.93588,7.12126627 78.0728821,0 63.37763,0 Z M63.37763,16.983 C73.035316,16.983 78.6247696,20.7852701 85.1802409,27.0666563 C88.1514859,29.9136722 91.1100935,33.284526 94.3602876,36.7965 L62.4066636,36.7965 C61.9809656,36.5826606 61.538052,36.405127 61.0826184,36.2657813 C56.8116991,35.0716273 53.6679653,31.156024 53.6679653,26.7128438 C53.6679653,21.0572245 57.5965055,16.983 63.37763,16.983 Z M162.59275,16.983 C168.373875,16.983 172.302415,21.0572245 172.302415,26.7128438 C172.302415,31.156024 169.158681,35.0716273 164.887762,36.2657813 C164.402195,36.4003044 163.929555,36.5779128 163.475447,36.7965 L131.610092,36.7965 C134.860287,33.284526 137.818894,29.9136722 140.790139,27.0666563 C147.345611,20.7852701 152.935064,16.983 162.59275,16.983 Z M16.9477785,53.7795 L104.511301,53.7795 L104.511301,87.7455 L16.9477785,87.7455 L16.9477785,53.7795 Z M121.459079,53.7795 L209.022602,53.7795 L209.022602,87.7455 L121.459079,87.7455 L121.459079,53.7795 Z M33.895557,104.7285 L104.511301,104.7285 L104.511301,209.457 L33.895557,209.457 L33.895557,104.7285 Z" id="Shape"></path>
                    </g>
                    <rect id="Rectangle-3-Copy" x="0" y="0" width="332.309383" height="333"></rect>
                </g>
                <g id="Group-2" transform="translate(197.632439, 40.726619)">
                    <g id="noun_669562_cc" transform="translate(44.371670, 33.347914)" fill-rule="nonzero">
                        <g id="Group">
                            <path d="M133.734507,4.50966402 C127.736652,-1.50065612 118.014136,-1.50065612 112.016281,4.50966402 L57.7207163,58.9180678 C51.7228612,64.9283879 51.7228612,74.6711092 57.7207163,80.6814293 L62.2210277,85.1910933 L92.1565455,85.1910933 C104.858789,85.1910933 115.195682,95.5494683 115.195682,108.27811 L115.195682,137.483187 C121.078341,140.89237 128.704296,140.14589 133.734507,135.105224 L188.045431,80.6814293 C194.027927,74.6711092 194.027927,64.9283879 188.045431,58.9180678 L133.734507,4.50966402 Z M92.1565455,81.3432571 C85.7977439,81.3432571 80.6369773,76.1717653 80.6369773,69.7997485 C80.6369773,63.4277318 85.7977439,58.25624 92.1565455,58.25624 C98.5153472,58.25624 103.676114,63.4277318 103.676114,69.7997485 C103.676114,76.1717653 98.5153472,81.3432571 92.1565455,81.3432571 Z M122.875394,81.3432571 C116.516592,81.3432571 111.355826,76.1717653 111.355826,69.7997485 C111.355826,63.4277318 116.516592,58.25624 122.875394,58.25624 C129.234196,58.25624 134.394962,63.4277318 134.394962,69.7997485 C134.394962,76.1717653 129.234196,81.3432571 122.875394,81.3432571 Z M153.594243,81.3432571 C147.235441,81.3432571 142.074674,76.1717653 142.074674,69.7997485 C142.074674,63.4277318 147.235441,58.25624 153.594243,58.25624 C159.953044,58.25624 165.113811,63.4277318 165.113811,69.7997485 C165.113811,76.1717653 159.953044,81.3432571 153.594243,81.3432571 Z" id="Shape" fill="#285302"></path>
                            <path d="M92.1565455,92.8867657 L15.3594243,92.8867657 C6.87334235,92.8867657 0,99.7820881 0,108.27811 L0,185.234834 C0,193.738552 6.88102207,200.626179 15.3594243,200.626179 L92.1565455,200.626179 C100.634948,200.626179 107.51597,193.738552 107.51597,185.234834 L107.51597,108.27811 C107.51597,99.7820881 100.634948,92.8867657 92.1565455,92.8867657 Z M34.5587046,177.539162 C28.1999029,177.539162 23.0391364,172.36767 23.0391364,165.995653 C23.0391364,159.623637 28.1999029,154.452145 34.5587046,154.452145 C40.9175062,154.452145 46.0782728,159.623637 46.0782728,165.995653 C46.0782728,172.36767 40.9175062,177.539162 34.5587046,177.539162 Z M34.5587046,139.0608 C28.1999029,139.0608 23.0391364,133.889308 23.0391364,127.517291 C23.0391364,121.145275 28.1999029,115.973783 34.5587046,115.973783 C40.9175062,115.973783 46.0782728,121.145275 46.0782728,127.517291 C46.0782728,133.889308 40.9175062,139.0608 34.5587046,139.0608 Z M72.9572652,177.539162 C66.5984636,177.539162 61.437697,172.36767 61.437697,165.995653 C61.437697,159.623637 66.5984636,154.452145 72.9572652,154.452145 C79.3160668,154.452145 84.4768334,159.623637 84.4768334,165.995653 C84.4768334,172.36767 79.3160668,177.539162 72.9572652,177.539162 Z M72.9572652,139.0608 C66.5984636,139.0608 61.437697,133.889308 61.437697,127.517291 C61.437697,121.145275 66.5984636,115.973783 72.9572652,115.973783 C79.3160668,115.973783 84.4768334,121.145275 84.4768334,127.517291 C84.4768334,133.889308 79.3160668,139.0608 72.9572652,139.0608 Z" id="Shape" fill="#FFFFFF"></path>
                        </g>
                    </g>
                    <rect id="Rectangle-3-Copy-2" x="0" y="0" width="277.322938" height="277.899281"></rect>
                </g>
            </g>
        </g>
    </g>
</svg>