<?xml version="1.0" encoding="UTF-8"?>
<svg width="20px" height="16px" viewBox="0 0 20 16" version="1.1" xmlns="http://www.w3.org/2000/svg" xmlns:xlink="http://www.w3.org/1999/xlink">
    <!-- Generator: Sketch 47.1 (45422) - http://www.bohemiancoding.com/sketch -->
    <title>card</title>
    <desc>Created with Sketch.</desc>
    <defs></defs>
    <g id="Main-Expeiance" stroke="none" stroke-width="1" fill="none" fill-rule="evenodd">
        <g id="Desktop_Profile_Settings-Copy" transform="translate(-684.000000, -234.000000)">
            <g id="card" transform="translate(682.000000, 230.000000)">
                <polygon id="Shape" points="0 0 24 0 24 24 0 24"></polygon>
                <path d="M20,4 L4,4 C2.89,4 2.01,4.89 2.01,6 L2,18 C2,19.11 2.89,20 4,20 L20,20 C21.11,20 22,19.11 22,18 L22,6 C22,4.89 21.11,4 20,4 Z M20,18 L4,18 L4,12 L20,12 L20,18 Z M20,8 L4,8 L4,6 L20,6 L20,8 Z" id="Shape" fill-opacity="0.57" fill="#000000" fill-rule="nonzero"></path>
            </g>
        </g>
    </g>
</svg>