<?xml version="1.0" encoding="UTF-8"?>
<svg width="96px" height="8px" viewBox="0 0 96 8" version="1.1" xmlns="http://www.w3.org/2000/svg" xmlns:xlink="http://www.w3.org/1999/xlink">
    <!-- Generator: Sketch 47.1 (45422) - http://www.bohemiancoding.com/sketch -->
    <title>password</title>
    <desc>Created with Sketch.</desc>
    <defs></defs>
    <g id="Main-Expeiance" stroke="none" stroke-width="1" fill="none" fill-rule="evenodd">
        <g id="Desktop_Profile_Settings-Copy" transform="translate(-788.000000, -380.000000)" fill="#666666">
            <g id="Group-3" transform="translate(685.000000, 373.000000)">
                <g id="password" transform="translate(103.000000, 4.000000)">
                    <path d="M2.59375,7.40625 L0.2109375,6.71875 L0.640625,5.3984375 L3,6.3125 L2.8828125,3.625 L4.28125,3.625 L4.1640625,6.359375 L6.484375,5.4609375 L6.90625,6.8046875 L4.484375,7.4921875 L6.046875,9.5703125 L4.9140625,10.3984375 L3.5078125,8.1484375 L2.1171875,10.328125 L0.9765625,9.53125 L2.59375,7.40625 Z M13.6484375,7.40625 L11.265625,6.71875 L11.6953125,5.3984375 L14.0546875,6.3125 L13.9375,3.625 L15.3359375,3.625 L15.21875,6.359375 L17.5390625,5.4609375 L17.9609375,6.8046875 L15.5390625,7.4921875 L17.1015625,9.5703125 L15.96875,10.3984375 L14.5625,8.1484375 L13.171875,10.328125 L12.03125,9.53125 L13.6484375,7.40625 Z M24.703125,7.40625 L22.3203125,6.71875 L22.75,5.3984375 L25.109375,6.3125 L24.9921875,3.625 L26.390625,3.625 L26.2734375,6.359375 L28.59375,5.4609375 L29.015625,6.8046875 L26.59375,7.4921875 L28.15625,9.5703125 L27.0234375,10.3984375 L25.6171875,8.1484375 L24.2265625,10.328125 L23.0859375,9.53125 L24.703125,7.40625 Z M35.7578125,7.40625 L33.375,6.71875 L33.8046875,5.3984375 L36.1640625,6.3125 L36.046875,3.625 L37.4453125,3.625 L37.328125,6.359375 L39.6484375,5.4609375 L40.0703125,6.8046875 L37.6484375,7.4921875 L39.2109375,9.5703125 L38.078125,10.3984375 L36.671875,8.1484375 L35.28125,10.328125 L34.140625,9.53125 L35.7578125,7.40625 Z M46.8125,7.40625 L44.4296875,6.71875 L44.859375,5.3984375 L47.21875,6.3125 L47.1015625,3.625 L48.5,3.625 L48.3828125,6.359375 L50.703125,5.4609375 L51.125,6.8046875 L48.703125,7.4921875 L50.265625,9.5703125 L49.1328125,10.3984375 L47.7265625,8.1484375 L46.3359375,10.328125 L45.1953125,9.53125 L46.8125,7.40625 Z M57.8671875,7.40625 L55.484375,6.71875 L55.9140625,5.3984375 L58.2734375,6.3125 L58.15625,3.625 L59.5546875,3.625 L59.4375,6.359375 L61.7578125,5.4609375 L62.1796875,6.8046875 L59.7578125,7.4921875 L61.3203125,9.5703125 L60.1875,10.3984375 L58.78125,8.1484375 L57.390625,10.328125 L56.25,9.53125 L57.8671875,7.40625 Z M68.921875,7.40625 L66.5390625,6.71875 L66.96875,5.3984375 L69.328125,6.3125 L69.2109375,3.625 L70.609375,3.625 L70.4921875,6.359375 L72.8125,5.4609375 L73.234375,6.8046875 L70.8125,7.4921875 L72.375,9.5703125 L71.2421875,10.3984375 L69.8359375,8.1484375 L68.4453125,10.328125 L67.3046875,9.53125 L68.921875,7.40625 Z M79.9765625,7.40625 L77.59375,6.71875 L78.0234375,5.3984375 L80.3828125,6.3125 L80.265625,3.625 L81.6640625,3.625 L81.546875,6.359375 L83.8671875,5.4609375 L84.2890625,6.8046875 L81.8671875,7.4921875 L83.4296875,9.5703125 L82.296875,10.3984375 L80.890625,8.1484375 L79.5,10.328125 L78.359375,9.53125 L79.9765625,7.40625 Z M91.03125,7.40625 L88.6484375,6.71875 L89.078125,5.3984375 L91.4375,6.3125 L91.3203125,3.625 L92.71875,3.625 L92.6015625,6.359375 L94.921875,5.4609375 L95.34375,6.8046875 L92.921875,7.4921875 L94.484375,9.5703125 L93.3515625,10.3984375 L91.9453125,8.1484375 L90.5546875,10.328125 L89.4140625,9.53125 L91.03125,7.40625 Z" id="*-*-*-*-*-*-*-*-*"></path>
                </g>
            </g>
        </g>
    </g>
</svg>