<?xml version="1.0" encoding="UTF-8"?>
<svg width="201px" height="132px" viewBox="0 0 201 132" version="1.1" xmlns="http://www.w3.org/2000/svg" xmlns:xlink="http://www.w3.org/1999/xlink">
    <!-- Generator: Sketch 47.1 (45422) - http://www.bohemiancoding.com/sketch -->
    <title>Millenial</title>
    <desc>Created with Sketch.</desc>
    <defs></defs>
    <g id="Main-Expeiance" stroke="none" stroke-width="1" fill="none" fill-rule="evenodd">
        <g id="Desktop_Lottery_ShareLotto" transform="translate(-337.000000, -299.000000)">
            <g id="Millenial" transform="translate(338.000000, 300.000000)">
                <path d="M151.220588,122.2 C156.917647,111.484533 160.179412,99.2994667 160.179412,86.3488 C160.179412,43.7773333 125.335294,9.26666667 82.3529412,9.26666667 C39.3705882,9.26666667 4.52352941,43.7773333 4.52352941,86.3488 C4.52352941,99.2994667 7.78529412,111.484533 13.4852941,122.2 L151.220588,122.2 Z" id="Fill-4" fill-opacity="0.440528759" fill="#FAFAFA"></path>
                <path d="M5.88235294,122.2 L0,122.2" id="Stroke-6" stroke="#504B46" stroke-linecap="round"></path>
                <path d="M164.705882,122.2 L158.823529,122.2" id="Stroke-8" stroke="#504B46" stroke-linecap="round"></path>
                <path d="M11.7647059,122.2 L152.941176,122.2" id="Stroke-10" stroke="#504B46" stroke-linecap="round"></path>
                <path d="M132.358824,126.6 C132.008824,126.6 131.652941,126.567733 131.297059,126.506133 L118.261765,124.1272 C117.988235,124.077333 117.720588,124.006933 117.458824,123.921867 C108.773529,121.0384 102.941176,112.965867 102.941176,103.831467 L102.941176,95.8 C102.941176,92.5645333 105.582353,89.9333333 108.823529,89.9333333 C112.067647,89.9333333 114.705882,92.5645333 114.705882,95.8 L114.705882,103.831467 C114.705882,107.7944 117.214706,111.361333 120.944118,112.710667 L133.408824,114.960533 C134.958824,115.245067 136.3,116.1104 137.194118,117.398133 C138.085294,118.6888 138.423529,120.2464 138.141176,121.7864 C137.626471,124.578933 135.197059,126.6 132.358824,126.6 L132.358824,126.6 Z" id="Fill-13" fill="#B78B7C"></path>
                <path d="M132.358824,126.6 C132.008824,126.6 131.652941,126.567733 131.297059,126.506133 L118.261765,124.1272 C117.988235,124.077333 117.720588,124.006933 117.458824,123.921867 C108.773529,121.0384 102.941176,112.965867 102.941176,103.831467 L102.941176,95.8 C102.941176,92.5645333 105.582353,89.9333333 108.823529,89.9333333 C112.067647,89.9333333 114.705882,92.5645333 114.705882,95.8 L114.705882,103.831467 C114.705882,107.7944 117.214706,111.361333 120.944118,112.710667 L133.408824,114.960533 C134.958824,115.245067 136.3,116.1104 137.194118,117.398133 C138.085294,118.6888 138.423529,120.2464 138.141176,121.7864 C137.626471,124.578933 135.197059,126.6 132.358824,126.6 L132.358824,126.6 Z" id="Stroke-15" stroke="#504A45"></path>
                <path d="M55.8823529,101.666667 L55.8823529,122.2 L102.941176,122.2 L102.941176,101.666667 L117.647059,101.666667 L117.647059,100.2 C117.647059,83.9992 104.479412,70.8666667 88.2352941,70.8666667 L70.5882353,70.8666667 C54.3441176,70.8666667 41.1764706,83.9992 41.1764706,100.2 L41.1764706,101.666667 L55.8823529,101.666667 Z" id="Fill-17" fill="#99D56A"></path>
                <path d="M117.647059,100.2 C117.647059,83.9992 104.479412,70.8666667 88.2352941,70.8666667 L70.5882353,70.8666667 C54.3441176,70.8666667 41.1764706,83.9992 41.1764706,100.2 L41.1764706,103.133333 C41.1764706,86.9325333 54.3441176,82.6 70.5882353,82.6 L88.2352941,82.6 C104.479412,82.6 117.647059,86.9325333 117.647059,103.133333 L117.647059,100.2 Z" id="Fill-19" fill="#B3E090"></path>
                <path d="M79.4117647,88.4666667 C87.5323529,88.4666667 94.1176471,81.8989333 94.1176471,73.8 L94.1176471,71.4562667 C92.2176471,71.072 90.25,70.8666667 88.2352941,70.8666667 L70.5882353,70.8666667 C68.5735294,70.8666667 66.6058824,71.072 64.7058824,71.4562667 L64.7058824,73.8 C64.7058824,81.8989333 71.2911765,88.4666667 79.4117647,88.4666667" id="Fill-21" fill="#FFE086"></path>
                <path d="M94.1176471,72.3333333 L94.1176471,73.8 C94.1176471,81.8989333 87.5323529,88.4666667 79.4117647,88.4666667 C71.2911765,88.4666667 64.7058824,81.8989333 64.7058824,73.8 L64.7058824,72.3333333" id="Stroke-23" stroke="#504B46" stroke-linecap="round" stroke-linejoin="round"></path>
                <path d="M102.941176,94.3333333 L102.941176,92.8666667" id="Stroke-25" stroke="#504B46" stroke-linecap="round" stroke-linejoin="round"></path>
                <polyline id="Stroke-27" stroke="#504B46" stroke-linecap="round" stroke-linejoin="round" points="55.8823529 98.7333333 55.8823529 122.2 102.941176 122.2 102.941176 98.7333333"></polyline>
                <path d="M102.941176,101.666667 L102.941176,101.666667 L117.647059,101.666667 L117.647059,100.2 C117.647059,83.9992 104.479412,70.8666667 88.2352941,70.8666667 L70.5882353,70.8666667 C54.3441176,70.8666667 41.1764706,83.9992 41.1764706,100.2 L41.1764706,101.666667 L55.8823529,101.666667" id="Stroke-29" stroke="#504B46" stroke-linecap="round" stroke-linejoin="round"></path>
                <path d="M55.8823529,104.6 L55.8823529,101.666667" id="Fill-31" fill="#EDF2F4"></path>
                <path d="M55.8823529,104.6 L55.8823529,101.666667" id="Stroke-33" stroke="#504B46" stroke-linecap="round" stroke-linejoin="round"></path>
                <path d="M88.2352941,73.4905333 C88.2352941,76.4326667 86.7617647,79.1812 84.3058824,80.8121333 C81.3411765,82.7833333 77.4823529,82.7833333 74.5176471,80.8121333 C72.0617647,79.1812 70.5882353,76.4326667 70.5882353,73.4905333 L70.5882353,60.6014667 L88.2352941,60.6014667 L88.2352941,73.4905333 Z" id="Fill-35" fill="#B78B7C"></path>
                <path d="M88.2352941,73.4905333 C88.2352941,76.4326667 86.7617647,79.1812 84.3058824,80.8121333 C81.3411765,82.7833333 77.4823529,82.7833333 74.5176471,80.8121333 C72.0617647,79.1812 70.5882353,76.4326667 70.5882353,73.4905333 L70.5882353,60.6014667 L88.2352941,60.6014667 L88.2352941,73.4905333 L88.2352941,73.4905333 Z" id="Stroke-37" stroke="#504B46" stroke-linecap="round" stroke-linejoin="round"></path>
                <path d="M70.5882353,70.5522133 C70.8117647,70.6519467 71.0205882,70.7634133 71.2558824,70.8543467 C76.1941176,72.8255467 82.6294118,72.8255467 87.5676471,70.8543467 C87.8029412,70.7634133 88.0117647,70.6519467 88.2352941,70.5522133 L88.2352941,60.5994133 L70.5882353,60.5994133 L70.5882353,70.5522133 Z" id="Fill-39" fill="#A56F5B"></path>
                <path d="M88.2352941,73.4905333 C88.2352941,76.4326667 86.7617647,79.1812 84.3058824,80.8121333 C81.3411765,82.7833333 77.4823529,82.7833333 74.5176471,80.8121333 C72.0617647,79.1812 70.5882353,76.4326667 70.5882353,73.4905333 L70.5882353,60.6014667 L88.2352941,60.6014667 L88.2352941,73.4905333 L88.2352941,73.4905333 Z" id="Stroke-41" stroke="#504B46" stroke-linecap="round" stroke-linejoin="round"></path>
                <path d="M55.8823529,94.3333333 L55.8823529,92.8666667" id="Stroke-43" stroke="#504B46" stroke-linecap="round" stroke-linejoin="round"></path>
                <polygon id="Fill-45" fill="#B78B7C" points="44.1176471 122.2 55.8823529 122.2 55.8823529 101.666667 44.1176471 101.666667"></polygon>
                <polygon id="Stroke-47" stroke="#504B46" stroke-linecap="round" stroke-linejoin="round" points="44.1176471 122.2 55.8823529 122.2 55.8823529 101.666667 44.1176471 101.666667"></polygon>
                <path d="M144.117647,126.6 C144.117647,128.2192 142.8,129.533333 141.176471,129.533333 L129.411765,129.533333 C127.788235,129.533333 126.470588,128.2192 126.470588,126.6 L126.470588,100.2 C126.470588,98.5808 127.788235,97.2666667 129.411765,97.2666667 L141.176471,97.2666667 C142.8,97.2666667 144.117647,98.5808 144.117647,100.2 L144.117647,126.6 Z" id="Fill-48" fill="#E3ECF0"></path>
                <path d="M144.117647,126.6 C144.117647,128.2192 142.8,129.533333 141.176471,129.533333 L129.411765,129.533333 C127.788235,129.533333 126.470588,128.2192 126.470588,126.6 L126.470588,100.2 C126.470588,98.5808 127.788235,97.2666667 129.411765,97.2666667 L141.176471,97.2666667 C142.8,97.2666667 144.117647,98.5808 144.117647,100.2 L144.117647,126.6 L144.117647,126.6 Z" id="Stroke-49" stroke="#504B46" stroke-linecap="round" stroke-linejoin="round"></path>
                <path d="M133.823529,103.133333 C133.823529,103.942933 133.164706,104.6 132.352941,104.6 C131.541176,104.6 130.882353,103.942933 130.882353,103.133333 C130.882353,102.323733 131.541176,101.666667 132.352941,101.666667 C133.164706,101.666667 133.823529,102.323733 133.823529,103.133333" id="Fill-50" fill="#504B46"></path>
                <path d="M146.830294,125.133333 L137.942059,125.133333 C134.042059,125.133333 130.883235,121.98 130.883235,118.093333 L130.883235,114.573333 C130.883235,110.686667 134.042059,107.533333 137.942059,107.533333 L146.830294,107.533333 C149.095,113.182933 149.095,119.483733 146.830294,125.133333" id="Fill-51" fill="#B78B7C"></path>
                <path d="M133.823529,122.493333 L133.823529,118.973333 C133.823529,115.083733 136.985294,111.933333 140.882353,111.933333 L148.114706,111.933333 C147.829412,110.440267 147.402941,108.9648 146.829412,107.533333 L137.941176,107.533333 C134.044118,107.533333 130.882353,110.683733 130.882353,114.573333 L130.882353,118.093333 C130.882353,120.5104 132.105882,122.64 133.967647,123.9072 C133.873529,123.4496 133.823529,122.977333 133.823529,122.493333" id="Fill-52" fill="#CCA196"></path>
                <path d="M147.561471,123.02808 C147.193824,124.274747 146.043824,125.134213 144.740882,125.134213 L137.940882,125.134213 C134.043824,125.134213 130.882059,121.98088 130.882059,118.094213 L130.882059,114.574213 C130.882059,110.684613 134.043824,107.534213 137.940882,107.534213 L144.740882,107.534213 C146.046765,107.534213 147.193824,108.390747 147.561471,109.637413 C148.852647,114.00808 148.852647,118.657413 147.561471,123.02808 L147.561471,123.02808 Z" id="Stroke-53" stroke="#504B46" stroke-linecap="round" stroke-linejoin="round"></path>
                <path d="M198.529412,62.8803733 C198.529412,66.6291733 195.482353,69.6681067 191.723529,69.6681067 L168.782353,69.6681067 L150.061765,86.6403733 L150.064706,69.6681067 L134.747059,69.6681067 C130.988235,69.6681067 127.941176,66.6291733 127.941176,62.8803733 L127.941176,18.9889067 C127.941176,15.2401067 130.988235,12.2011733 134.747059,12.2011733 L191.723529,12.2011733 C195.482353,12.2011733 198.529412,15.2401067 198.529412,18.9889067 L198.529412,62.8803733 Z" id="Fill-54" fill="#FFFFFF"></path>
                <path d="M198.529412,62.8803733 C198.529412,66.6291733 195.482353,69.6681067 191.723529,69.6681067 L168.782353,69.6681067 L150.061765,86.6403733 L150.064706,69.6681067 L134.747059,69.6681067 C130.988235,69.6681067 127.941176,66.6291733 127.941176,62.8803733 L127.941176,18.9889067 C127.941176,15.2401067 130.988235,12.2011733 134.747059,12.2011733 L191.723529,12.2011733 C195.482353,12.2011733 198.529412,15.2401067 198.529412,18.9889067 L198.529412,62.8803733 L198.529412,62.8803733 Z" id="Stroke-55" stroke="#504B46" stroke-linejoin="round"></path>
                <path d="M164.176471,60.4920533 C164.176471,60.4920533 184.097059,51.44272 184.097059,36.8933867 C184.097059,22.3381867 166.423529,21.2176533 164.176471,35.7728533 C161.929412,21.21472 144.255882,22.3352533 144.255882,38.0109867 C144.255882,53.6837867 164.176471,60.4920533 164.176471,60.4920533" id="Fill-56" fill="#E05C4A"></path>
                <path d="M158.255294,32.8814667 C160.37,32.8814667 162.364118,33.3596 164.175882,34.1721333 C160.517059,22.0956 144.790588,23.9113333 144.790588,38.7041333 C144.790588,39.6809333 144.87,40.6254667 145.014118,41.5348 C147.249412,36.4454667 152.328824,32.8814667 158.255294,32.8814667" id="Fill-57" fill="#E88074"></path>
                <path d="M170.097353,32.8814667 C167.982647,32.8814667 165.988529,33.3596 164.176765,34.1721333 C167.835588,22.0956 183.562059,23.9113333 183.562059,38.7041333 C183.562059,39.6809333 183.482647,40.6254667 183.338529,41.5348 C181.103235,36.4454667 176.023824,32.8814667 170.097353,32.8814667" id="Fill-58" fill="#E88074"></path>
                <path d="M164.176471,60.4920533 C164.176471,60.4920533 184.097059,51.44272 184.097059,36.8933867 C184.097059,22.3381867 166.423529,21.2176533 164.176471,35.7728533 C161.929412,21.21472 144.255882,22.3352533 144.255882,38.0109867 C144.255882,53.6837867 164.176471,60.4920533 164.176471,60.4920533 L164.176471,60.4920533 Z" id="Stroke-59" stroke="#504B46" stroke-linejoin="round"></path>
                <path d="M107.352941,37.1368533 C107.352941,34.40592 105.473529,32.1325867 102.941176,31.4784533 L102.941176,29.80352 C102.941176,16.8440533 92.4058824,6.33685333 79.4117647,6.33685333 C66.4176471,6.33685333 55.8823529,16.8440533 55.8823529,29.80352 L55.8823529,31.4784533 C53.35,32.1325867 51.4705882,34.40592 51.4705882,37.1368533 C51.4705882,39.8912533 53.3794118,42.18512 55.9470588,42.8157867 C56.6176471,55.1768533 66.85,65.00352 79.4117647,65.00352 C91.9735294,65.00352 102.205882,55.1768533 102.876471,42.8157867 C105.444118,42.18512 107.352941,39.8912533 107.352941,37.1368533" id="Fill-60" fill="#B78B7C"></path>
                <path d="M107.352941,37.1368533 C107.352941,34.40592 105.473529,32.1325867 102.941176,31.4784533 L102.941176,29.80352 C102.941176,16.8440533 92.4058824,6.33685333 79.4117647,6.33685333 C66.4176471,6.33685333 55.8823529,16.8440533 55.8823529,29.80352 L55.8823529,31.4784533 C53.35,32.1325867 51.4705882,34.40592 51.4705882,37.1368533 C51.4705882,39.8912533 53.3794118,42.18512 55.9470588,42.8157867 C56.6176471,55.1768533 66.85,65.00352 79.4117647,65.00352 C91.9735294,65.00352 102.205882,55.1768533 102.876471,42.8157867 C105.444118,42.18512 107.352941,39.8912533 107.352941,37.1368533 L107.352941,37.1368533 Z" id="Stroke-61" stroke="#504B46" stroke-linecap="round" stroke-linejoin="round"></path>
                <path d="M93.6764706,15.7730933 L93.6764706,19.7330933 C93.6764706,23.01256 96.7117647,25.6730933 100,25.6730933 L100,31.6130933 C100,33.80136 101.776471,35.5730933 103.970588,35.5730933 L108.823529,35.5730933 L108.823529,18.28696 C108.823529,11.7250933 104.141176,5.87309333 97.5617647,5.87309333 L97.5617647,6.32189333 C97.5617647,3.08936 94.9352941,0.46696 91.6911765,0.46696 L64.6411765,0.46696 C59.8441176,0.46696 55.9558824,4.34482667 55.9558824,9.12909333 L55.9558824,10.36696 C52.6676471,10.36696 50,13.0274933 50,16.30696 L50,35.5730933 L55.9558824,35.5730933 C58.15,35.5730933 60.2941176,33.80136 60.2941176,31.6130933 L60.2941176,25.6730933 C72.2058824,29.6330933 93.6764706,23.6930933 93.6764706,15.7730933" id="Fill-62" fill="#775750"></path>
                <path d="M94.1176471,15.1333333 C93.8352941,18.0666667 92.2588235,25.6728 100,25.6728 L100,31.6128 C100,33.8010667 101.776471,35.5728 103.970588,35.5728 L108.823529,35.5728 L108.823529,18.0666667 C108.823529,11.5048 104.141176,5.8728 97.5617647,5.8728 C97.5617647,8.80613333 98.4058824,0.466666667 91.6911765,0.466666667 L64.6411765,0.466666667 C60.3794118,0.466666667 55.9558824,3.25333333 55.9558824,10.7333333 C52.6676471,10.7333333 50,13.0272 50,16.3066667 L50,35.5728 L55.9558824,35.5728 C58.15,35.5728 60.2941176,33.8010667 60.2941176,31.6128 L60.2941176,25.6728 C72.2058824,29.6328 94.1176471,23.0533333 94.1176471,15.1333333 L94.1176471,15.1333333 Z" id="Stroke-63" stroke="#504B46" stroke-linejoin="round"></path>
                <path d="M75,38.60352 C74.0911765,36.8816533 72.4970588,35.6701867 70.5882353,35.6701867 C68.6794118,35.6701867 67.0852941,36.8816533 66.1764706,38.60352" id="Stroke-64" stroke="#504B46" stroke-linecap="round" stroke-linejoin="round"></path>
                <path d="M92.6470588,38.60352 C91.7382353,36.8816533 90.1441176,35.6701867 88.2352941,35.6701867 C86.3264706,35.6701867 84.7323529,36.8816533 83.8235294,38.60352" id="Stroke-65" stroke="#504B46" stroke-linecap="round" stroke-linejoin="round"></path>
                <path d="M70.3676471,51.80352 C72.1823529,53.5253867 75.3764706,54.7368533 79.1911765,54.7368533 C83.0058824,54.7368533 86.2,53.5253867 88.0147059,51.80352" id="Stroke-66" stroke="#504B46" stroke-linecap="round" stroke-linejoin="round"></path>
                <path d="M67.6470588,47.40352 C67.6470588,49.02272 66.3294118,50.3368533 64.7058824,50.3368533 C63.0823529,50.3368533 61.7647059,49.02272 61.7647059,47.40352 C61.7647059,45.78432 63.0823529,44.4701867 64.7058824,44.4701867 C66.3294118,44.4701867 67.6470588,45.78432 67.6470588,47.40352" id="Fill-67" fill="#A56F5B"></path>
                <path d="M97.0588235,47.40352 C97.0588235,49.02272 95.7411765,50.3368533 94.1176471,50.3368533 C92.4941176,50.3368533 91.1764706,49.02272 91.1764706,47.40352 C91.1764706,45.78432 92.4941176,44.4701867 94.1176471,44.4701867 C95.7411765,44.4701867 97.0588235,45.78432 97.0588235,47.40352" id="Fill-68" fill="#A56F5B"></path>
                <path d="M78.6764706,9.27018667 C91.3,9.27018667 102.388235,12.97792 108.823529,18.5776533 L108.823529,18.0672533 C108.823529,11.5053867 104.141176,5.87338667 97.5647059,5.87338667 C97.5647059,5.94672 97.5647059,5.98192 97.5676471,6.04058667 C97.4117647,4.65018667 96.4529412,0.467253333 91.6911765,0.467253333 L64.6411765,0.467253333 C60.3794118,0.467253333 55.9558824,3.25098667 55.9558824,10.73392 C52.6676471,10.73392 50,13.0248533 50,16.3072533 L50,17.4101867 C56.5794118,12.4733867 66.9588235,9.27018667 78.6764706,9.27018667" id="Fill-69" fill="#87625D"></path>
                <path d="M94.1176471,15.1333333 C93.8352941,18.0666667 92.2588235,25.6728 100,25.6728 L100,31.6128 C100,33.8010667 101.776471,35.5728 103.970588,35.5728 L108.823529,35.5728 L108.823529,18.0666667 C108.823529,11.5048 104.141176,5.8728 97.5617647,5.8728 C97.5617647,8.80613333 98.4058824,0.466666667 91.6911765,0.466666667 L64.6411765,0.466666667 C60.3794118,0.466666667 55.9558824,3.25333333 55.9558824,10.7333333 C52.6676471,10.7333333 50,13.0272 50,16.3066667 L50,35.5728 L55.9558824,35.5728 C58.15,35.5728 60.2941176,33.8010667 60.2941176,31.6128 L60.2941176,25.6728 C72.2058824,29.6328 94.1176471,23.0533333 94.1176471,15.1333333 L94.1176471,15.1333333 Z" id="Stroke-70" stroke="#504B46" stroke-linejoin="round"></path>
            </g>
        </g>
    </g>
</svg>