<?xml version="1.0" encoding="UTF-8"?>
<svg width="195px" height="73px" viewBox="0 0 195 73" version="1.1" xmlns="http://www.w3.org/2000/svg" xmlns:xlink="http://www.w3.org/1999/xlink">
    <!-- Generator: Sketch 47.1 (45422) - http://www.bohemiancoding.com/sketch -->
    <title>Cashkaching</title>
    <desc>Created with Sketch.</desc>
    <defs></defs>
    <g id="Main-Expeiance" stroke="none" stroke-width="1" fill="none" fill-rule="evenodd">
        <g id="Registration_Main" transform="translate(-543.000000, -132.000000)">
            <g id="Cashkaching" transform="translate(543.000000, 132.000000)">
                <rect id="Rectangle-Copy" fill="#FFFFFF" x="0" y="0" width="195" height="72.8971963"></rect>
                <polygon id="Rectangle-16" fill="#F95800" points="29.1588785 0 43.7383178 0 43.7383178 14.5794393 36.4485981 9.9754058 29.1588785 14.5794393"></polygon>
                <path d="M30.6824299,47.8788785 C29.4796262,47.8788785 28.4736449,47.4852336 27.7082243,46.6760748 C26.9428037,45.8669159 26.571028,44.8390654 26.571028,43.5925234 C26.571028,42.3459813 26.9428037,41.34 27.7082243,40.5308411 C28.4736449,39.7216822 29.4796262,39.3061682 30.6824299,39.3061682 C32.628785,39.3061682 33.9409346,40.4214953 34.3564486,42.3241121 L38.1616822,42.3241121 C37.9211215,40.377757 37.1119626,38.8250467 35.7560748,37.6441121 C34.4001869,36.4413084 32.7162617,35.8508411 30.7042991,35.8508411 C28.4517757,35.8508411 26.5928972,36.5943925 25.0839252,38.0596262 C23.5749533,39.5248598 22.8314019,41.3618692 22.8314019,43.5925234 C22.8314019,45.8231776 23.5749533,47.6820561 25.0839252,49.1472897 C26.5928972,50.6125234 28.4517757,51.3342056 30.7042991,51.3342056 C32.7162617,51.3342056 34.4001869,50.7437383 35.7560748,49.5628037 C37.1119626,48.36 37.9211215,46.8072897 38.1616822,44.8609346 L34.3564486,44.8609346 C33.9409346,46.7635514 32.628785,47.8788785 30.6824299,47.8788785 Z M51.5747663,40.4214953 L51.5747663,51.0280374 L48.0319626,51.0280374 L48.0319626,50.4375701 C47.1790654,50.9842991 46.2168224,51.246729 45.1233645,51.246729 C43.68,51.246729 42.4334579,50.7218692 41.4056075,49.6502804 C40.377757,48.5786916 39.8528972,47.2665421 39.8528972,45.7138318 C39.8528972,44.1611215 40.377757,42.848972 41.4056075,41.7773832 C42.4334579,40.7057944 43.68,40.1809346 45.1233645,40.1809346 C46.2168224,40.1809346 47.1790654,40.4433645 48.0319626,40.9900935 L48.0319626,40.4214953 L51.5747663,40.4214953 Z M45.8450467,48.3381308 C46.7198131,48.3381308 47.4414953,48.0100935 48.0319626,47.3540187 L48.0319626,44.0517757 C47.4414953,43.3957009 46.6979439,43.0676636 45.8450467,43.0676636 C44.4235514,43.0676636 43.3300935,44.226729 43.3300935,45.7138318 C43.3300935,47.2009346 44.4235514,48.3381308 45.8450467,48.3381308 Z M66.8248598,46.5011215 C66.8248598,44.0736449 65.2940187,42.9364486 62.3416822,42.2585047 L60.2641121,41.7773832 C59.1050467,41.5149533 58.5583177,41.1650467 58.5583177,40.377757 C58.5583177,39.4373832 59.3893458,38.8906542 60.6796262,38.8906542 C62.0573832,38.8906542 62.866542,39.5248598 63.0852336,40.7714019 L66.8029906,40.7714019 C66.6717757,39.3499065 66.168785,38.2564486 65.2940187,37.491028 C64.4411215,36.7256075 63.3914019,36.2226168 62.1448598,35.9820561 L62.1448598,33.5545794 L59.28,33.5545794 L59.28,35.8945794 C56.393271,36.2663551 54.5343925,38.0814953 54.5343925,40.6839252 C54.5343925,43.0457944 55.8902804,44.4016822 58.8426168,45.057757 L61.2919626,45.604486 C62.3416822,45.8450467 62.866542,46.2386916 62.866542,46.8728972 C62.866542,47.6820561 62.1448598,48.1850467 60.7671028,48.1850467 C59.0175701,48.1850467 57.8803738,47.397757 57.6398131,46.0856075 L53.9439252,46.0856075 C54.2282243,49.0816822 56.3276635,50.831215 59.28,51.246729 L59.28,53.4336449 L62.1448598,53.4336449 L62.1448598,51.2248598 C65.0315888,50.7874766 66.8248598,49.0379439 66.8248598,46.5011215 Z M75.8203738,40.0934579 C74.7706542,40.0934579 73.8084112,40.4433645 72.9117757,41.1213084 L72.9117757,35.5009346 L69.3471028,35.5009346 L69.3471028,51.0280374 L72.9117757,51.0280374 L72.9117757,44.3579439 C73.5241121,43.6581308 74.1583177,43.3082243 74.8362617,43.3082243 C76.0609346,43.3082243 76.7826168,44.0736449 76.7826168,45.5388785 L76.7826168,51.0280374 L80.3254205,51.0280374 L80.3254205,44.9702804 C80.3254205,43.4831776 79.9099065,42.302243 79.0788785,41.4274766 C78.2478504,40.5308411 77.1543925,40.0934579 75.8203738,40.0934579 Z M93.833271,47.3540187 L96.3700934,51.0280374 L100.61271,51.0280374 L96.2388785,44.7515888 L100.262804,40.4214953 L96.042056,40.4214953 L92.3680374,44.3798131 L92.3680374,35.5009346 L88.8033645,35.5009346 L88.8033645,51.0280374 L92.3680374,51.0280374 L92.3680374,48.9285981 L93.833271,47.3540187 Z M112.626168,40.4214953 L112.626168,51.0280374 L109.083364,51.0280374 L109.083364,50.4375701 C108.230467,50.9842991 107.268224,51.246729 106.174766,51.246729 C104.731402,51.246729 103.48486,50.7218692 102.457009,49.6502804 C101.429159,48.5786916 100.904299,47.2665421 100.904299,45.7138318 C100.904299,44.1611215 101.429159,42.848972 102.457009,41.7773832 C103.48486,40.7057944 104.731402,40.1809346 106.174766,40.1809346 C107.268224,40.1809346 108.230467,40.4433645 109.083364,40.9900935 L109.083364,40.4214953 L112.626168,40.4214953 Z M106.896449,48.3381308 C107.771215,48.3381308 108.492897,48.0100935 109.083364,47.3540187 L109.083364,44.0517757 C108.492897,43.3957009 107.749346,43.0676636 106.896449,43.0676636 C105.474953,43.0676636 104.381495,44.226729 104.381495,45.7138318 C104.381495,47.2009346 105.474953,48.3381308 106.896449,48.3381308 Z M120.659439,48.2725234 C119.172336,48.2725234 118.231963,47.2009346 118.231963,45.7138318 C118.231963,44.226729 119.172336,43.1770093 120.659439,43.1770093 C121.731028,43.1770093 122.562056,43.811215 122.737009,44.7734579 L126.082991,44.7734579 C125.951776,43.4175701 125.383178,42.3241121 124.355327,41.471215 C123.349346,40.6183178 122.102804,40.1809346 120.63757,40.1809346 C118.975514,40.1809346 117.597757,40.7057944 116.48243,41.755514 C115.388972,42.7833645 114.842243,44.1173832 114.842243,45.7138318 C114.842243,47.3321495 115.388972,48.6880374 116.48243,49.7158879 C117.597757,50.7656075 118.975514,51.2685981 120.63757,51.2685981 C122.102804,51.2685981 123.349346,50.8530841 124.355327,50.0001869 C125.383178,49.1472897 125.951776,48.0319626 126.082991,46.6760748 L122.737009,46.6760748 C122.562056,47.6383178 121.731028,48.2725234 120.659439,48.2725234 Z M134.772336,40.0934579 C133.722617,40.0934579 132.760374,40.4433645 131.863738,41.1213084 L131.863738,35.5009346 L128.299065,35.5009346 L128.299065,51.0280374 L131.863738,51.0280374 L131.863738,44.3579439 C132.476075,43.6581308 133.11028,43.3082243 133.788224,43.3082243 C135.012897,43.3082243 135.734579,44.0736449 135.734579,45.5388785 L135.734579,51.0280374 L139.277383,51.0280374 L139.277383,44.9702804 C139.277383,43.4831776 138.861869,42.302243 138.030841,41.4274766 C137.199813,40.5308411 136.106355,40.0934579 134.772336,40.0934579 Z M143.680374,38.7594393 C144.81757,38.7594393 145.757944,37.9065421 145.757944,36.7693458 C145.757944,35.6321495 144.81757,34.7573832 143.680374,34.7573832 C142.521308,34.7573832 141.602804,35.6321495 141.602804,36.7693458 C141.602804,37.9065421 142.521308,38.7594393 143.680374,38.7594393 Z M145.473645,40.4214953 L141.930841,40.4214953 L141.930841,51.0280374 L145.473645,51.0280374 L145.473645,40.4214953 Z M154.70972,40.0934579 C153.66,40.0934579 152.697757,40.4433645 151.801121,41.1213084 L151.801121,40.4214953 L148.236449,40.4214953 L148.236449,51.0280374 L151.801121,51.0280374 L151.801121,44.3579439 C152.413458,43.6581308 153.047663,43.3082243 153.725607,43.3082243 C154.95028,43.3082243 155.671963,44.0736449 155.671963,45.5388785 L155.671963,51.0280374 L159.214766,51.0280374 L159.214766,44.9702804 C159.214766,43.4831776 158.799252,42.302243 157.968224,41.4274766 C157.137196,40.5308411 156.043738,40.0934579 154.70972,40.0934579 Z M172.846542,40.4214953 L172.846542,50.8530841 C172.846542,52.493271 172.321682,53.7616822 171.271963,54.7020561 C170.244112,55.6424299 168.866355,56.1016822 167.18243,56.1016822 C165.564112,56.1016822 164.230093,55.6861682 163.158505,54.833271 C162.086916,53.9803738 161.518318,52.8869159 161.430841,51.5091589 L164.951776,51.5091589 C165.10486,52.5807477 165.848411,53.1056075 167.160561,53.1056075 C168.450841,53.1056075 169.303738,52.3183178 169.303738,50.9186916 L169.303738,49.9127103 C168.450841,50.4157009 167.488598,50.6562617 166.417009,50.6562617 C164.973645,50.6562617 163.727103,50.153271 162.699252,49.1472897 C161.671402,48.1413084 161.146542,46.9166355 161.146542,45.4951402 C161.146542,43.8986916 161.649533,42.6084112 162.677383,41.5805607 C163.705234,40.5527103 164.951776,40.0497196 166.417009,40.0497196 C167.488598,40.0497196 168.450841,40.3121495 169.303738,40.8370093 L169.303738,40.4214953 L172.846542,40.4214953 Z M167.116822,47.8351402 C167.991589,47.8351402 168.713271,47.5071028 169.303738,46.851028 L169.303738,43.9205607 C168.713271,43.264486 167.991589,42.9364486 167.116822,42.9364486 C165.651589,42.9364486 164.601869,43.9861682 164.601869,45.4951402 C164.601869,46.0856075 164.84243,46.6323364 165.323551,47.1134579 C165.826542,47.5945794 166.417009,47.8351402 167.116822,47.8351402 Z" id="Ca$h-kaching" fill="#6CA516"></path>
            </g>
        </g>
    </g>
</svg>