<?xml version="1.0" encoding="UTF-8"?>
<svg width="63px" height="63px" viewBox="0 0 63 63" version="1.1" xmlns="http://www.w3.org/2000/svg" xmlns:xlink="http://www.w3.org/1999/xlink">
    <!-- Generator: Sketch 47.1 (45422) - http://www.bohemiancoding.com/sketch -->
    <title>handout</title>
    <desc>Created with Sketch.</desc>
    <defs></defs>
    <g id="Main-Expeiance" stroke="none" stroke-width="1" fill="none" fill-rule="evenodd">
        <g id="Desktop_LandingPage" transform="translate(-1068.000000, -1184.000000)" fill-rule="nonzero">
            <g id="Group-30" transform="translate(950.000000, 1120.000000)">
                <g id="handout" transform="translate(118.000000, 64.000000)">
                    <circle id="Oval" fill="#EFD358" cx="43.826087" cy="21.9130435" r="8.2173913"></circle>
                    <circle id="Oval" fill="#EFD358" cx="24.6521739" cy="8.2173913" r="8.2173913"></circle>
                    <path d="M27.3913043,9.58695652 L21.9130435,9.58695652 C21.1560437,9.58695652 20.5434783,8.97439109 20.5434783,8.2173913 C20.5434783,7.46039152 21.1560437,6.84782609 21.9130435,6.84782609 L27.3913043,6.84782609 C28.1483041,6.84782609 28.7608696,7.46039152 28.7608696,8.2173913 C28.7608696,8.97439109 28.1483041,9.58695652 27.3913043,9.58695652 Z" id="Shape" fill="#B29930"></path>
                    <path d="M46.5652174,23.2826087 L41.0869565,23.2826087 C40.3299567,23.2826087 39.7173913,22.6700433 39.7173913,21.9130435 C39.7173913,21.1560437 40.3299567,20.5434783 41.0869565,20.5434783 L46.5652174,20.5434783 C47.3222172,20.5434783 47.9347826,21.1560437 47.9347826,21.9130435 C47.9347826,22.6700433 47.3222172,23.2826087 46.5652174,23.2826087 Z" id="Shape" fill="#B29930"></path>
                    <path d="M58.9074241,46.9210989 L34.9117239,49.0076726 C32.6902343,49.2008498 30.4626776,48.7115863 28.5266054,47.6052652 L21.9130435,43.826087 L37.344825,43.826087 C39.4115537,43.826087 41.0869565,42.1506841 41.0869565,40.0839554 L41.0869565,40.0839417 C41.0869565,38.2831689 39.8043861,36.7377652 38.0344559,36.4059059 L24.1782085,33.8078543 C20.8491926,33.183675 17.469448,32.8695652 14.0824037,32.8695652 L2.73913043,32.8695652 L2.73913043,52.6995 L25.26741,62.0911839 C27.7611143,63.0259943 30.5200624,63.0128602 33.0581543,62.3720543 L63,50.673913 L63,50.673242 C63,48.4644072 61.1079457,46.7297433 58.9074241,46.9210989 Z" id="Shape" fill="#EAD8C5"></path>
                    <path d="M8.2173913,58.8913043 L1.36956522,58.8913043 C0.613181739,58.8913043 0,58.2781226 0,57.5217391 L0,31.5 C0,30.7436165 0.613181739,30.1304348 1.36956522,30.1304348 L8.2173913,30.1304348 C8.97377478,30.1304348 9.58695652,30.7436165 9.58695652,31.5 L9.58695652,57.5217391 C9.58695652,58.2781226 8.97377478,58.8913043 8.2173913,58.8913043 Z" id="Shape" fill="#5A7A84"></path>
                </g>
            </g>
        </g>
    </g>
</svg>