<?xml version="1.0" encoding="UTF-8"?>
<svg width="63px" height="63px" viewBox="0 0 63 63" version="1.1" xmlns="http://www.w3.org/2000/svg" xmlns:xlink="http://www.w3.org/1999/xlink">
    <!-- Generator: Sketch 47.1 (45422) - http://www.bohemiancoding.com/sketch -->
    <title>spaceship</title>
    <desc>Created with Sketch.</desc>
    <defs></defs>
    <g id="Main-Expeiance" stroke="none" stroke-width="1" fill="none" fill-rule="evenodd">
        <g id="Desktop_LandingPage" transform="translate(-194.000000, -1184.000000)" fill-rule="nonzero">
            <g id="Group-29" transform="translate(75.000000, 1120.000000)">
                <g id="spaceship" transform="translate(119.000000, 64.000000)">
                    <path d="M13.158336,31.5909689 C12.7805653,31.5909689 12.4194489,31.4409671 12.1527822,31.1743004 L2.40278044,21.4242987 C1.94444089,20.9659591 1.85417244,20.254848 2.18333156,19.6965262 C3.24999822,17.8875022 4.50000356,16.2618027 5.89860267,14.8631893 C12.9472071,7.81458489 23.4166542,5.809024 32.5680427,9.75138133 C33,9.93749333 33.3111111,10.3243093 33.4013938,10.7854222 C33.4916764,11.2458382 33.3486151,11.7215289 33.0180622,12.0562489 L14.1708444,31.16736 C13.9055716,31.4374969 13.5416818,31.5895893 13.1638969,31.5909689 C13.1611093,31.5909689 13.1597156,31.5909689 13.158336,31.5909689 Z" id="Shape" fill="#B3B3B3"></path>
                    <path d="M42.5805582,61.0131911 C42.2125013,61.0131911 41.8486116,60.8708267 41.5750044,60.5965227 L31.7388871,50.7604053 C31.4708267,50.4930418 31.3208249,50.1298489 31.3222187,49.7506844 C31.3236124,49.3722169 31.4749938,49.0097067 31.744448,48.7437369 L50.8722276,29.8236018 C51.205568,29.4944284 51.679168,29.3520782 52.1388871,29.4374969 C52.5986062,29.524992 52.9861049,29.8333298 53.1736107,30.2618027 C57.2194489,39.4597262 55.241664,49.995136 48.1361138,57.1013831 C46.7402738,58.4979058 45.1138916,59.7472142 43.3027769,60.8159716 C43.0777813,60.948608 42.8291627,61.0131911 42.5805582,61.0131911 Z" id="Shape" fill="#B3B3B3"></path>
                    <path d="M7.59584,37.4631964 C7.38334578,37.9923627 7.50695111,38.5965369 7.90972444,38.9993102 L24.0000071,55.0895929 C24.2722347,55.3618204 24.6361244,55.5062613 25.0055609,55.5062613 C25.1875058,55.5062613 25.3694507,55.4715449 25.5444551,55.400704 C25.8125156,55.2907236 46.2734436,46.6451484 56.7268338,25.0157227 L37.9153707,6.20425956 C16.2512142,16.6295182 7.70364444,37.1940978 7.59584,37.4631964 Z" id="Shape" fill="#E6E6E6"></path>
                    <path d="M62.2180622,0.786104889 C61.9319538,0.498602667 61.5152853,0.343736889 61.1361209,0.369436444 C52.1176249,0.840007111 44.4303858,3.06908444 37.9153707,6.20424533 L56.7268338,25.0157084 C59.8703289,18.5114596 62.1196302,10.8472178 62.629184,1.87013689 C62.6527787,1.46666667 62.5027769,1.07291022 62.2180622,0.786104889 Z" id="Shape" fill="#E86C60"></path>
                    <path d="M35.0611129,35.0444373 C33.2402844,35.0444373 31.4194418,34.3513884 30.0333298,32.9652764 C27.2611058,30.1930524 27.2611058,25.6812516 30.0333298,22.9090276 L30.0333298,22.9090276 C32.8069476,20.1340302 37.3194453,20.1368036 40.0902756,22.9090276 C41.4333369,24.2520889 42.1736036,26.037504 42.1736036,27.9368107 C42.1736036,29.8368142 41.4333227,31.6222293 40.0902756,32.9652764 C38.7041636,34.3513884 36.8833351,35.0444373 35.0611129,35.0444373 Z" id="Shape" fill="#76B5B5"></path>
                    <path d="M3.99305244,62.6527716 C2.94860089,62.6527716 2.12221867,62.6020836 1.73888711,62.5736107 C1.03611022,62.5215289 0.477774222,61.9631929 0.426389333,61.260416 C0.324999111,59.9013831 -0.0486044444,52.9916729 2.50555022,50.4381867 L2.50555022,50.4381867 L2.50555022,50.4381867 C3.84861156,49.0951396 5.63332978,48.3555556 7.53333333,48.3555556 C9.43333689,48.3555556 11.2180551,49.0951396 12.5611164,50.4382009 C15.3333404,53.2111218 15.3333404,57.7222258 12.5611164,60.4951467 C10.7291662,62.3277796 6.65138489,62.6527716 3.99305244,62.6527716 Z" id="Shape" fill="#EA9860"></path>
                </g>
            </g>
        </g>
    </g>
</svg>