<?xml version="1.0" encoding="UTF-8"?>
<svg width="63px" height="63px" viewBox="0 0 63 63" version="1.1" xmlns="http://www.w3.org/2000/svg" xmlns:xlink="http://www.w3.org/1999/xlink">
    <!-- Generator: Sketch 47.1 (45422) - http://www.bohemiancoding.com/sketch -->
    <title>gift-2</title>
    <desc>Created with Sketch.</desc>
    <defs></defs>
    <g id="Main-Expeiance" stroke="none" stroke-width="1" fill="none" fill-rule="evenodd">
        <g id="Desktop_LandingPage" transform="translate(-631.000000, -1184.000000)" fill-rule="nonzero">
            <g id="Group-34" transform="translate(514.000000, 1120.000000)">
                <g id="gift-2" transform="translate(117.000000, 64.000000)">
                    <path d="M42.4565217,0 C36.5221957,0 33.1585435,4.92358696 31.5,8.46391304 C29.8414565,4.92358696 26.4778043,0 20.5434783,0 C16.767587,0 13.6956522,3.07193478 13.6956522,6.84782609 C13.6956522,10.6237174 16.767587,13.6956522 20.5434783,13.6956522 L31.5,13.6956522 L42.4565217,13.6956522 C46.232413,13.6956522 49.3043478,10.6237174 49.3043478,6.84782609 C49.3043478,3.07193478 46.232413,0 42.4565217,0 Z M20.5434783,10.9565217 C18.2782174,10.9565217 16.4347826,9.11308696 16.4347826,6.84782609 C16.4347826,4.58256522 18.2782174,2.73913043 20.5434783,2.73913043 C25.6725,2.73913043 28.4677826,8.11330435 29.5867174,10.9565217 L20.5434783,10.9565217 Z M42.4565217,10.9565217 L33.4091739,10.9565217 C34.5212609,8.11467391 37.3069565,2.73913043 42.4565217,2.73913043 C44.7217826,2.73913043 46.5652174,4.58256522 46.5652174,6.84782609 C46.5652174,9.11308696 44.7217826,10.9565217 42.4565217,10.9565217 Z" id="Shape" fill="#D1B43D"></path>
                    <path d="M57.5217391,19.173913 L5.47826087,19.173913 L5.47826087,60.2608696 C5.47826087,61.7742391 6.70402174,63 8.2173913,63 L54.7826087,63 C56.2959783,63 57.5217391,61.7742391 57.5217391,60.2608696 L57.5217391,19.173913 Z" id="Shape" fill="#C94F49"></path>
                    <path d="M60.2608696,10.9565217 L2.73913043,10.9565217 C1.22576087,10.9565217 0,12.1822826 0,13.6956522 L0,21.9130435 C0,23.426413 1.22576087,24.6521739 2.73913043,24.6521739 L60.2608696,24.6521739 C61.7742391,24.6521739 63,23.426413 63,21.9130435 L63,13.6956522 C63,12.1822826 61.7742391,10.9565217 60.2608696,10.9565217 Z" id="Shape" fill="#E86C60"></path>
                    <rect id="Rectangle-path" fill="#EFD358" x="24.6521739" y="10.9565217" width="13.6956522" height="13.6956522"></rect>
                    <rect id="Rectangle-path" fill="#D1B43D" x="24.6521739" y="24.6521739" width="13.6956522" height="38.3478261"></rect>
                </g>
            </g>
        </g>
    </g>
</svg>