<?xml version="1.0" encoding="UTF-8"?>
<svg width="16px" height="16px" viewBox="0 0 16 16" version="1.1" xmlns="http://www.w3.org/2000/svg" xmlns:xlink="http://www.w3.org/1999/xlink">
    <!-- Generator: Sketch 47.1 (45422) - http://www.bohemiancoding.com/sketch -->
    <title>Google +</title>
    <desc>Created with Sketch.</desc>
    <defs></defs>
    <g id="Main-Expeiance" stroke="none" stroke-width="1" fill="none" fill-rule="evenodd">
        <g id="Registration_Main" transform="translate(-543.000000, -422.000000)" fill="#FFFFFF">
            <g id="Medium_button_normal-Copy-2" transform="translate(520.000000, 409.000000)">
                <g id="Medium_button_normal">
                    <g id="Google-+" transform="translate(23.000000, 13.000000)">
                        <path d="M8.03827751,6.85714286 L8.03827751,9.6 L12.5971292,9.6 C12.4133971,10.7771429 11.2191388,13.0514286 8.03827751,13.0514286 C5.2937799,13.0514286 3.05454545,10.7885714 3.05454545,8 C3.05454545,5.21142857 5.2937799,2.94857143 8.03827751,2.94857143 C9.6,2.94857143 10.6449761,3.61142857 11.2421053,4.18285714 L13.4239234,2.09142857 C12.0229665,0.788571429 10.2086124,0 8.03827751,0 C3.59425837,0 0,3.57714286 0,8 C0,12.4228571 3.59425837,16 8.03827751,16 C12.677512,16 15.7550239,12.7542857 15.7550239,8.18285714 C15.7550239,7.65714286 15.6976077,7.25714286 15.6287081,6.85714286 L8.03827751,6.85714286 L8.03827751,6.85714286 Z" id="Shape"></path>
                    </g>
                </g>
            </g>
        </g>
    </g>
</svg>