<?xml version="1.0" encoding="UTF-8"?>
<svg width="20px" height="16px" viewBox="0 0 20 16" version="1.1" xmlns="http://www.w3.org/2000/svg" xmlns:xlink="http://www.w3.org/1999/xlink">
    <!-- Generator: Sketch 47.1 (45422) - http://www.bohemiancoding.com/sketch -->
    <title>ic_email_white_24px</title>
    <desc>Created with Sketch.</desc>
    <defs></defs>
    <g id="Main-Expeiance" stroke="none" stroke-width="1" fill="none" fill-rule="evenodd">
        <g id="Registration_Main" transform="translate(-540.000000, -355.000000)">
            <g id="Medium_button_normal" transform="translate(520.000000, 342.000000)">
                <g id="ic_email_white_24px">
                    <g transform="translate(18.000000, 9.000000)">
                        <path d="M20,4 L4,4 C2.9,4 2.01,4.9 2.01,6 L2,18 C2,19.1 2.9,20 4,20 L20,20 C21.1,20 22,19.1 22,18 L22,6 C22,4.9 21.1,4 20,4 Z M20,8 L12,13 L4,8 L4,6 L12,11 L20,6 L20,8 Z" id="Shape" fill="#FFFFFF" fill-rule="nonzero"></path>
                        <polygon id="Shape" points="0 0 24 0 24 24 0 24"></polygon>
                    </g>
                </g>
            </g>
        </g>
    </g>
</svg>